<?xml version="1.0" standalone="no"?>
<!DOCTYPE svg PUBLIC "-//W3C//DTD SVG 20010904//EN"
 "http://www.w3.org/TR/2001/REC-SVG-20010904/DTD/svg10.dtd">
<svg version="1.0" xmlns="http://www.w3.org/2000/svg"
 width="600.000000pt" height="600.000000pt" viewBox="0 0 600.000000 600.000000"
 preserveAspectRatio="xMidYMid meet">
<metadata>
Created by potrace 1.11, written by Peter Selinger 2001-2013
</metadata>
<g transform="translate(0.000000,600.000000) scale(0.100000,-0.100000)"
fill="#000000" stroke="none">
<path d="M1342 4788 c-75 -10 -195 -49 -272 -88 -252 -127 -437 -391 -466
-665 -19 -181 3 -320 76 -470 73 -150 178 -267 314 -349 60 -36 60 -37 -4 -69
-62 -31 -167 -115 -237 -191 -86 -92 -154 -205 -197 -327 -46 -127 -60 -233
-53 -388 12 -274 112 -507 296 -692 245 -246 596 -333 944 -234 417 119 697
497 699 945 2 203 -37 361 -125 520 -83 148 -247 308 -383 374 l-47 23 73 48
c199 132 329 318 374 535 17 84 16 272 -3 352 -61 265 -223 472 -461 589 -161
80 -353 112 -528 87z m269 -313 c116 -28 192 -66 270 -134 90 -78 161 -204
186 -331 10 -49 6 -186 -7 -240 -35 -150 -140 -296 -269 -374 -99 -60 -201
-89 -316 -89 -172 0 -310 57 -430 177 -124 126 -180 269 -171 444 12 221 122
397 311 495 116 60 299 83 426 52z m-40 -1449 c130 -18 277 -94 379 -197 41
-41 80 -82 86 -90 53 -73 109 -208 121 -292 10 -66 10 -230 0 -282 -27 -144
-119 -312 -224 -404 -66 -58 -208 -143 -240 -143 -4 0 -16 -4 -25 -9 -46 -25
-219 -39 -288 -24 -14 3 -38 8 -55 11 -53 9 -159 56 -225 99 -248 160 -366
457 -306 769 51 263 260 486 516 550 98 24 156 27 261 12z"/>
<path d="M2959 4791 c0 -3 -1 -415 -1 -916 -1 -818 3 -1086 17 -1195 2 -19 7
-57 10 -85 3 -27 8 -61 11 -75 2 -14 6 -38 9 -55 8 -60 34 -181 44 -207 6 -16
9 -28 6 -28 -10 0 77 -232 119 -318 68 -138 131 -227 231 -328 148 -149 294
-230 485 -270 93 -20 343 -26 438 -11 362 56 641 294 811 691 38 90 94 267
107 341 3 17 9 48 14 70 9 44 16 84 25 160 4 28 8 61 10 74 16 94 20 333 20
1186 l0 970 -139 0 -139 0 -2 -995 c-1 -547 -5 -1017 -8 -1045 -4 -27 -9 -70
-12 -95 -54 -461 -203 -769 -452 -938 -59 -40 -166 -87 -218 -96 -17 -3 -51
-10 -77 -14 -59 -12 -246 -8 -313 6 -272 56 -474 255 -602 592 -14 36 -26 72
-28 80 -2 8 -13 53 -24 100 -25 105 -33 148 -45 270 -4 36 -10 79 -13 95 -3
17 -7 473 -9 1015 -1 542 -3 994 -3 1006 -1 20 -6 21 -136 21 -74 0 -135 -3
-136 -6z"/>
</g>
</svg>
