<?xml version="1.0" encoding="utf-8"?>
<!-- Generator: Adobe Illustrator 16.0.0, SVG Export Plug-In . SVG Version: 6.00 Build 0)  -->
<svg version="1.2" baseProfile="tiny" xmlns="http://www.w3.org/2000/svg" xmlns:xlink="http://www.w3.org/1999/xlink" x="0px"
	 y="0px" width="202.166px" height="32px" viewBox="0 0 202.166 32" xml:space="preserve">
<g id="Layer_2">
	<g>
		<g>
			<path fill="#A93895" d="M34.153,9.442l-2.782,11.484l1.77,6.051l-4.913,1.437l-1.771-6.051l-8.53-8.175l5.68-1.661l3.667,3.506
				l1.2-4.93L34.153,9.442z"/>
			<path fill="#A93895" d="M48.185,22.577l-1.234-1.125l-7.163,2.097l-0.389,1.599l-5.702,1.666l4.971-20.428l15.197,14.53
				L48.185,22.577z M42.678,17.344l-1.122-1.082l-0.362,1.514L42.678,17.344z"/>
			<path fill="#A93895" d="M60.414,1.762l-2.78,11.483l1.77,6.051l-4.915,1.438l-1.77-6.052l-8.531-8.174l5.679-1.662l3.668,3.507
				l1.201-4.93L60.414,1.762z"/>
		</g>
		<g>
			<path fill="#A93895" d="M93.284,7.058L82.623,25.553L71.964,7.058h6.232l4.427,7.684l4.4-7.684H93.284z"/>
			<path fill="#A93895" d="M98.674,24.483H93.28V7.058h5.394V24.483z"/>
			<path fill="#A93895" d="M115.412,22.322c-0.025,0.025-0.051,0.05-0.076,0.076c-1.832,1.833-4.021,2.722-6.589,2.722
				c-2.545,0-4.758-0.889-6.563-2.722c-1.833-1.833-2.747-4.02-2.747-6.589c0-2.57,0.914-4.758,2.747-6.589
				c1.806-1.832,4.019-2.722,6.563-2.722c2.568,0,4.757,0.891,6.589,2.722c0.025,0.025,0.051,0.051,0.076,0.076l-3.843,3.816
				c-0.023-0.025-0.023-0.025-0.05-0.052c-0.763-0.762-1.704-1.144-2.772-1.144c-1.069,0-2.01,0.382-2.773,1.144
				c-0.763,0.764-1.145,1.68-1.145,2.749c0,1.094,0.382,2.009,1.145,2.772c0.764,0.764,1.704,1.146,2.773,1.146
				c1.068,0,2.01-0.382,2.772-1.146c0.026-0.026,0.05-0.051,0.076-0.076L115.412,22.322z"/>
			<path fill="#A93895" d="M128.41,12.451h-3.791v12.032h-5.394V12.451h-3.79V7.058h12.975V12.451z"/>
			<path fill="#A93895" d="M143.647,22.348c-1.806,1.806-3.995,2.721-6.564,2.721s-4.757-0.915-6.589-2.721
				c-1.807-1.833-2.722-4.021-2.722-6.588c0-2.57,0.915-4.759,2.722-6.564c1.832-1.832,4.02-2.748,6.589-2.748
				s4.759,0.916,6.564,2.748c1.831,1.806,2.747,3.994,2.747,6.564C146.395,18.327,145.479,20.515,143.647,22.348z M139.831,13.01
				c-0.764-0.764-1.68-1.144-2.748-1.144c-1.094,0-2.01,0.38-2.773,1.144c-0.762,0.764-1.145,1.68-1.145,2.749
				c0,1.094,0.383,2.008,1.145,2.772c0.764,0.764,1.68,1.146,2.773,1.146c1.068,0,1.984-0.382,2.748-1.146
				c0.789-0.764,1.17-1.678,1.17-2.772C141.001,14.69,140.62,13.774,139.831,13.01z"/>
			<path fill="#A93895" d="M159.952,25.146c-0.179,0-0.331-0.026-0.51-0.052c-0.355,0-0.712-0.05-1.066-0.102
				c-0.331-0.051-0.688-0.153-1.02-0.255c-0.916-0.203-1.806-0.559-2.646-1.018c-0.865-0.482-1.628-1.043-2.365-1.729h-0.051v2.492
				h-5.394V7.007l8.573,0.051c2.061,0,3.816,0.738,5.291,2.188c1.449,1.45,2.188,3.206,2.188,5.292c0,1.018-0.204,1.958-0.585,2.873
				c-0.383,0.892-0.917,1.654-1.577,2.342c1.17,0,2.799-0.482,3.409-0.764l-3.714,6.183
				C160.308,25.171,160.13,25.146,159.952,25.146z M155.475,12.477h-3.18v4.12h3.18c0.56,0,1.068-0.203,1.449-0.609
				c0.408-0.408,0.611-0.892,0.611-1.451c0-0.586-0.203-1.068-0.611-1.476C156.543,12.68,156.034,12.477,155.475,12.477z"/>
			<path fill="#A93895" d="M166.462,24.765c-1.526,0-2.772-1.222-2.772-2.747c0-1.526,1.246-2.775,2.772-2.775
				s2.773,1.249,2.773,2.775C169.235,23.543,167.988,24.765,166.462,24.765z M169.21,7.058l-0.356,11.474h-4.808l-0.33-11.474
				H169.21z"/>
		</g>
	</g>
	<path fill="#D64241" d="M68.018,19.324c-0.747-0.984,2.614-5.65,2.614-5.65l-3.323-0.478c-2.728,5.362-1.825,6.577-0.644,6.684
		L68.018,19.324z"/>
	<path fill="#D64241" d="M67.392,20.805c0,0,3.4-1.435,4.827-0.332s-2.726,4.236-2.06,5.672c0.473,1.021,2.902,0.35,2.902,0.35
		l-1.576,2.336c0,0-3.891,1.013-3.799-1.8C67.781,24.221,72.727,19.421,67.392,20.805z"/>
	<polygon fill="#DDD821" points="63.249,10.457 63.687,12.354 65.519,11.989 65.199,10.147 	"/>
	<polygon fill="#45C2CC" points="25.035,2.199 25.737,5.239 28.672,4.654 28.157,1.704 	"/>
	<polygon fill="#108884" points="68.275,4.2 67.385,5.411 68.5,6.278 69.416,5.165 	"/>
	<polygon fill="#45C2CC" points="98.674,27.735 99.375,30.775 102.311,30.19 101.795,27.239 	"/>
	<polygon fill="#E0DA1E" points="123.151,0.625 121.25,3.098 123.567,4.993 125.519,2.72 	"/>
	<polygon fill="#4065AF" points="137.083,13.505 137.522,15.403 139.354,15.038 139.034,13.196 	"/>
	<polygon fill="#108884" points="128.285,26.598 127.395,27.808 128.51,28.675 129.426,27.562 	"/>
</g>
<g id="Layer_1">
	<path fill="#47B649" d="M188.738,13.772c0,0,0.158,4.289-2.521,5.099c-2.681,0.81-9.354,0.593-9.16,6.949
		c0,0-1.846-3.054-0.637-6.601c1.011-2.965,6.79-3.518,8.313-3.518C186.256,15.701,188.203,15.245,188.738,13.772z"/>
	<path fill="#47B649" d="M185.838,24.515c-2.955,0.321-5.395,0.76-7.035,0.281c-0.035,0.308-0.046,0.78-0.043,1.62l0.05,0.87
		c0.566,0.437,1.286,0.675,2.202,0.532c3.129-0.478,5.141-0.338,5.008,2.975l3.317-2.718
		C189.337,28.075,189.947,24.062,185.838,24.515z"/>
	<polygon fill="#DDD821" points="194.147,10.785 194.768,13.474 197.364,12.959 196.908,10.347 	"/>
	<polygon fill="#45C2CC" points="187.937,19.487 186.335,21.849 188.514,23.417 190.172,21.238 	"/>
	<polygon fill="#108884" points="192.861,23.137 192.916,26.055 195.659,26.074 195.756,23.277 	"/>
	<path fill="#47B649" d="M187.369,12.962l0.407-1.117c-0.951-1.563-3.276-2.983-8.412-3.354l-2.391,3.444
		c0,0,6.11-0.001,9.061,2.056C186.664,13.793,187.188,13.466,187.369,12.962z"/>
	<polygon fill="#108884" points="188.616,2.809 187.725,4.018 188.839,4.886 189.756,3.773 	"/>
	<path fill="#47B649" d="M3.828,9.238c0,0-1.561,4,1.255,5.811c2.817,1.812,10.55,4.207,8.284,10.15c0,0,3.101-2.172,2.852-6.002
		c-0.207-3.201-6.665-5.978-8.413-6.57C6.058,12.032,3.969,10.841,3.828,9.238z"/>
	<polygon fill="#45C2CC" points="19.362,27.26 20.442,30.12 17.436,30.756 16.232,28.047 	"/>
	<path fill="#47B649" d="M5.66,9.004L5.552,7.788c1.594-1.108,4.721-1.548,10.737,0.104l1.638,4.193c0,0-7.016-2.383-11.064-1.585
		C6.203,10.066,5.707,9.552,5.66,9.004z"/>
</g>
</svg>
